<svg width="24" height="20" viewBox="0 0 24 20" fill="none" xmlns="http://www.w3.org/2000/svg">
<path d="M21.3335 10V4.16669H23.6668V11.1667H21.3335M21.3335 15.8334H23.6668V13.5H21.3335M9.66683 11.1667C12.7818 11.1667 19.0002 12.73 19.0002 15.8334V19.3334H0.333496V15.8334C0.333496 12.73 6.55183 11.1667 9.66683 11.1667ZM9.66683 0.666687C10.9045 0.666687 12.0915 1.15835 12.9667 2.03352C13.8418 2.90869 14.3335 4.09568 14.3335 5.33335C14.3335 6.57103 13.8418 7.75802 12.9667 8.63319C12.0915 9.50836 10.9045 10 9.66683 10C8.42915 10 7.24217 9.50836 6.367 8.63319C5.49183 7.75802 5.00016 6.57103 5.00016 5.33335C5.00016 4.09568 5.49183 2.90869 6.367 2.03352C7.24217 1.15835 8.42915 0.666687 9.66683 0.666687ZM9.66683 13.3834C6.20183 13.3834 2.55016 15.0867 2.55016 15.8334V17.1167H16.7835V15.8334C16.7835 15.0867 13.1318 13.3834 9.66683 13.3834ZM9.66683 2.88335C9.01705 2.88335 8.39388 3.14148 7.93442 3.60094C7.47495 4.06041 7.21683 4.68357 7.21683 5.33335C7.21683 5.98313 7.47495 6.6063 7.93442 7.06577C8.39388 7.52523 9.01705 7.78335 9.66683 7.78335C10.3166 7.78335 10.9398 7.52523 11.3992 7.06577C11.8587 6.6063 12.1168 5.98313 12.1168 5.33335C12.1168 4.68357 11.8587 4.06041 11.3992 3.60094C10.9398 3.14148 10.3166 2.88335 9.66683 2.88335Z" fill="black"/>
</svg>
