<svg width="287" height="24" viewBox="0 0 287 24" fill="none" xmlns="http://www.w3.org/2000/svg">
<path d="M2.35981 6.278V9.54H5.91581V10.59H2.35981V13.95H6.33581V15H1.08581V5.228H6.33581V6.278H2.35981ZM12.0015 7.188C12.9349 7.188 13.6909 7.47267 14.2695 8.042C14.8482 8.602 15.1375 9.414 15.1375 10.478V15H13.8775V10.66C13.8775 9.89467 13.6862 9.31133 13.3035 8.91C12.9209 8.49933 12.3982 8.294 11.7355 8.294C11.0635 8.294 10.5269 8.504 10.1255 8.924C9.73355 9.344 9.53755 9.95533 9.53755 10.758V15H8.26355V7.328H9.53755V8.42C9.78955 8.028 10.1302 7.72467 10.5595 7.51C10.9982 7.29533 11.4789 7.188 12.0015 7.188ZM18.7726 8.378V12.9C18.7726 13.2733 18.852 13.5393 19.0106 13.698C19.1693 13.8473 19.4446 13.922 19.8366 13.922H20.7746V15H19.6266C18.9173 15 18.3853 14.8367 18.0306 14.51C17.676 14.1833 17.4986 13.6467 17.4986 12.9V8.378H16.5046V7.328H17.4986V5.396H18.7726V7.328H20.7746V8.378H18.7726ZM29.3182 10.87C29.3182 11.1127 29.3042 11.3693 29.2762 11.64H23.1442C23.1909 12.396 23.4476 12.9887 23.9142 13.418C24.3902 13.838 24.9642 14.048 25.6362 14.048C26.1869 14.048 26.6442 13.922 27.0082 13.67C27.3816 13.4087 27.6429 13.0633 27.7922 12.634H29.1642C28.9589 13.3713 28.5482 13.9733 27.9322 14.44C27.3162 14.8973 26.5509 15.126 25.6362 15.126C24.9082 15.126 24.2549 14.9627 23.6762 14.636C23.1069 14.3093 22.6589 13.8473 22.3322 13.25C22.0056 12.6433 21.8422 11.9433 21.8422 11.15C21.8422 10.3567 22.0009 9.66133 22.3182 9.064C22.6356 8.46667 23.0789 8.00933 23.6482 7.692C24.2269 7.36533 24.8896 7.202 25.6362 7.202C26.3642 7.202 27.0082 7.36067 27.5682 7.678C28.1282 7.99533 28.5576 8.434 28.8562 8.994C29.1642 9.54467 29.3182 10.17 29.3182 10.87ZM28.0022 10.604C28.0022 10.1187 27.8949 9.70333 27.6802 9.358C27.4656 9.00333 27.1716 8.73733 26.7982 8.56C26.4342 8.37333 26.0282 8.28 25.5802 8.28C24.9362 8.28 24.3856 8.48533 23.9282 8.896C23.4802 9.30667 23.2236 9.876 23.1582 10.604H28.0022ZM32.2739 8.574C32.4979 8.13533 32.8152 7.79467 33.2259 7.552C33.6459 7.30933 34.1545 7.188 34.7519 7.188V8.504H34.4159C32.9879 8.504 32.2739 9.27867 32.2739 10.828V15H30.9999V7.328H32.2739V8.574ZM46.787 5.242L43.609 11.318V15H42.335V11.318L39.143 5.242H40.557L42.965 10.184L45.373 5.242H46.787ZM51.4767 15.126C50.7581 15.126 50.1047 14.9627 49.5167 14.636C48.9381 14.3093 48.4807 13.8473 48.1447 13.25C47.8181 12.6433 47.6547 11.9433 47.6547 11.15C47.6547 10.366 47.8227 9.67533 48.1587 9.078C48.5041 8.47133 48.9707 8.00933 49.5587 7.692C50.1467 7.36533 50.8047 7.202 51.5327 7.202C52.2607 7.202 52.9187 7.36533 53.5067 7.692C54.0947 8.00933 54.5567 8.46667 54.8927 9.064C55.2381 9.66133 55.4107 10.3567 55.4107 11.15C55.4107 11.9433 55.2334 12.6433 54.8787 13.25C54.5334 13.8473 54.0621 14.3093 53.4647 14.636C52.8674 14.9627 52.2047 15.126 51.4767 15.126ZM51.4767 14.006C51.9341 14.006 52.3634 13.8987 52.7647 13.684C53.1661 13.4693 53.4881 13.1473 53.7307 12.718C53.9827 12.2887 54.1087 11.766 54.1087 11.15C54.1087 10.534 53.9874 10.0113 53.7447 9.582C53.5021 9.15267 53.1847 8.83533 52.7927 8.63C52.4007 8.41533 51.9761 8.308 51.5187 8.308C51.0521 8.308 50.6227 8.41533 50.2307 8.63C49.8481 8.83533 49.5401 9.15267 49.3067 9.582C49.0734 10.0113 48.9567 10.534 48.9567 11.15C48.9567 11.7753 49.0687 12.3027 49.2927 12.732C49.5261 13.1613 49.8341 13.4833 50.2167 13.698C50.5994 13.9033 51.0194 14.006 51.4767 14.006ZM63.8898 7.328V15H62.6158V13.866C62.3731 14.258 62.0325 14.566 61.5938 14.79C61.1645 15.0047 60.6885 15.112 60.1658 15.112C59.5685 15.112 59.0318 14.9907 58.5558 14.748C58.0798 14.496 57.7018 14.1227 57.4218 13.628C57.1511 13.1333 57.0158 12.5313 57.0158 11.822V7.328H58.2758V11.654C58.2758 12.41 58.4671 12.9933 58.8498 13.404C59.2325 13.8053 59.7551 14.006 60.4178 14.006C61.0991 14.006 61.6358 13.796 62.0278 13.376C62.4198 12.956 62.6158 12.3447 62.6158 11.542V7.328H63.8898ZM67.3149 8.574C67.5389 8.13533 67.8562 7.79467 68.2669 7.552C68.6869 7.30933 69.1956 7.188 69.7929 7.188V8.504H69.4569C68.0289 8.504 67.3149 9.27867 67.3149 10.828V15H66.0409V7.328H67.3149V8.574ZM76.27 6.278V9.54H79.826V10.59H76.27V13.95H80.246V15H74.996V5.228H80.246V6.278H76.27ZM91.3997 7.188C91.997 7.188 92.529 7.314 92.9957 7.566C93.4624 7.80867 93.831 8.17733 94.1017 8.672C94.3724 9.16667 94.5077 9.76867 94.5077 10.478V15H93.2477V10.66C93.2477 9.89467 93.0564 9.31133 92.6737 8.91C92.3004 8.49933 91.7917 8.294 91.1477 8.294C90.485 8.294 89.9577 8.50867 89.5657 8.938C89.1737 9.358 88.9777 9.96933 88.9777 10.772V15H87.7177V10.66C87.7177 9.89467 87.5264 9.31133 87.1437 8.91C86.7704 8.49933 86.2617 8.294 85.6177 8.294C84.955 8.294 84.4277 8.50867 84.0357 8.938C83.6437 9.358 83.4477 9.96933 83.4477 10.772V15H82.1737V7.328H83.4477V8.434C83.6997 8.03267 84.0357 7.72467 84.4557 7.51C84.885 7.29533 85.3564 7.188 85.8697 7.188C86.5137 7.188 87.083 7.33267 87.5777 7.622C88.0724 7.91133 88.441 8.336 88.6837 8.896C88.8984 8.35467 89.253 7.93467 89.7477 7.636C90.2424 7.33733 90.793 7.188 91.3997 7.188ZM96.1215 11.136C96.1215 10.352 96.2802 9.666 96.5975 9.078C96.9149 8.48067 97.3489 8.01867 97.8995 7.692C98.4595 7.36533 99.0802 7.202 99.7615 7.202C100.434 7.202 101.017 7.34667 101.512 7.636C102.006 7.92533 102.375 8.28933 102.618 8.728V7.328H103.906V15H102.618V13.572C102.366 14.02 101.988 14.3933 101.484 14.692C100.989 14.9813 100.41 15.126 99.7475 15.126C99.0662 15.126 98.4502 14.958 97.8995 14.622C97.3489 14.286 96.9149 13.8147 96.5975 13.208C96.2802 12.6013 96.1215 11.9107 96.1215 11.136ZM102.618 11.15C102.618 10.5713 102.501 10.0673 102.268 9.638C102.034 9.20867 101.717 8.882 101.316 8.658C100.924 8.42467 100.49 8.308 100.014 8.308C99.5375 8.308 99.1035 8.42 98.7115 8.644C98.3195 8.868 98.0069 9.19467 97.7735 9.624C97.5402 10.0533 97.4235 10.5573 97.4235 11.136C97.4235 11.724 97.5402 12.2373 97.7735 12.676C98.0069 13.1053 98.3195 13.4367 98.7115 13.67C99.1035 13.894 99.5375 14.006 100.014 14.006C100.49 14.006 100.924 13.894 101.316 13.67C101.717 13.4367 102.034 13.1053 102.268 12.676C102.501 12.2373 102.618 11.7287 102.618 11.15ZM106.716 6.082C106.474 6.082 106.268 5.998 106.1 5.83C105.932 5.662 105.848 5.45667 105.848 5.214C105.848 4.97133 105.932 4.766 106.1 4.598C106.268 4.43 106.474 4.346 106.716 4.346C106.95 4.346 107.146 4.43 107.304 4.598C107.472 4.766 107.556 4.97133 107.556 5.214C107.556 5.45667 107.472 5.662 107.304 5.83C107.146 5.998 106.95 6.082 106.716 6.082ZM107.332 7.328V15H106.058V7.328H107.332ZM110.778 4.64V15H109.504V4.64H110.778ZM122.45 12.83H118.194L117.41 15H116.066L119.594 5.298H121.064L124.578 15H123.234L122.45 12.83ZM122.086 11.794L120.322 6.866L118.558 11.794H122.086ZM125.639 11.136C125.639 10.352 125.798 9.666 126.115 9.078C126.432 8.48067 126.866 8.01867 127.417 7.692C127.977 7.36533 128.602 7.202 129.293 7.202C129.89 7.202 130.446 7.342 130.959 7.622C131.472 7.89267 131.864 8.252 132.135 8.7V4.64H133.423V15H132.135V13.558C131.883 14.0153 131.51 14.3933 131.015 14.692C130.52 14.9813 129.942 15.126 129.279 15.126C128.598 15.126 127.977 14.958 127.417 14.622C126.866 14.286 126.432 13.8147 126.115 13.208C125.798 12.6013 125.639 11.9107 125.639 11.136ZM132.135 11.15C132.135 10.5713 132.018 10.0673 131.785 9.638C131.552 9.20867 131.234 8.882 130.833 8.658C130.441 8.42467 130.007 8.308 129.531 8.308C129.055 8.308 128.621 8.42 128.229 8.644C127.837 8.868 127.524 9.19467 127.291 9.624C127.058 10.0533 126.941 10.5573 126.941 11.136C126.941 11.724 127.058 12.2373 127.291 12.676C127.524 13.1053 127.837 13.4367 128.229 13.67C128.621 13.894 129.055 14.006 129.531 14.006C130.007 14.006 130.441 13.894 130.833 13.67C131.234 13.4367 131.552 13.1053 131.785 12.676C132.018 12.2373 132.135 11.7287 132.135 11.15ZM135.1 11.136C135.1 10.352 135.259 9.666 135.576 9.078C135.893 8.48067 136.327 8.01867 136.878 7.692C137.438 7.36533 138.063 7.202 138.754 7.202C139.351 7.202 139.907 7.342 140.42 7.622C140.933 7.89267 141.325 8.252 141.596 8.7V4.64H142.884V15H141.596V13.558C141.344 14.0153 140.971 14.3933 140.476 14.692C139.981 14.9813 139.403 15.126 138.74 15.126C138.059 15.126 137.438 14.958 136.878 14.622C136.327 14.286 135.893 13.8147 135.576 13.208C135.259 12.6013 135.1 11.9107 135.1 11.136ZM141.596 11.15C141.596 10.5713 141.479 10.0673 141.246 9.638C141.013 9.20867 140.695 8.882 140.294 8.658C139.902 8.42467 139.468 8.308 138.992 8.308C138.516 8.308 138.082 8.42 137.69 8.644C137.298 8.868 136.985 9.19467 136.752 9.624C136.519 10.0533 136.402 10.5573 136.402 11.136C136.402 11.724 136.519 12.2373 136.752 12.676C136.985 13.1053 137.298 13.4367 137.69 13.67C138.082 13.894 138.516 14.006 138.992 14.006C139.468 14.006 139.902 13.894 140.294 13.67C140.695 13.4367 141.013 13.1053 141.246 12.676C141.479 12.2373 141.596 11.7287 141.596 11.15ZM146.311 8.574C146.535 8.13533 146.852 7.79467 147.263 7.552C147.683 7.30933 148.192 7.188 148.789 7.188V8.504H148.453C147.025 8.504 146.311 9.27867 146.311 10.828V15H145.037V7.328H146.311V8.574ZM157.26 10.87C157.26 11.1127 157.246 11.3693 157.218 11.64H151.086C151.132 12.396 151.389 12.9887 151.856 13.418C152.332 13.838 152.906 14.048 153.578 14.048C154.128 14.048 154.586 13.922 154.95 13.67C155.323 13.4087 155.584 13.0633 155.734 12.634H157.106C156.9 13.3713 156.49 13.9733 155.874 14.44C155.258 14.8973 154.492 15.126 153.578 15.126C152.85 15.126 152.196 14.9627 151.618 14.636C151.048 14.3093 150.6 13.8473 150.274 13.25C149.947 12.6433 149.784 11.9433 149.784 11.15C149.784 10.3567 149.942 9.66133 150.26 9.064C150.577 8.46667 151.02 8.00933 151.59 7.692C152.168 7.36533 152.831 7.202 153.578 7.202C154.306 7.202 154.95 7.36067 155.51 7.678C156.07 7.99533 156.499 8.434 156.798 8.994C157.106 9.54467 157.26 10.17 157.26 10.87ZM155.944 10.604C155.944 10.1187 155.836 9.70333 155.622 9.358C155.407 9.00333 155.113 8.73733 154.74 8.56C154.376 8.37333 153.97 8.28 153.522 8.28C152.878 8.28 152.327 8.48533 151.87 8.896C151.422 9.30667 151.165 9.876 151.1 10.604H155.944ZM161.657 15.126C161.069 15.126 160.542 15.028 160.075 14.832C159.609 14.6267 159.24 14.3467 158.969 13.992C158.699 13.628 158.549 13.2127 158.521 12.746H159.837C159.875 13.1287 160.052 13.4413 160.369 13.684C160.696 13.9267 161.121 14.048 161.643 14.048C162.129 14.048 162.511 13.9407 162.791 13.726C163.071 13.5113 163.211 13.2407 163.211 12.914C163.211 12.578 163.062 12.3307 162.763 12.172C162.465 12.004 162.003 11.8407 161.377 11.682C160.808 11.5327 160.341 11.3833 159.977 11.234C159.623 11.0753 159.315 10.8467 159.053 10.548C158.801 10.24 158.675 9.83867 158.675 9.344C158.675 8.952 158.792 8.59267 159.025 8.266C159.259 7.93933 159.59 7.68267 160.019 7.496C160.449 7.3 160.939 7.202 161.489 7.202C162.339 7.202 163.025 7.41667 163.547 7.846C164.07 8.27533 164.35 8.86333 164.387 9.61H163.113C163.085 9.20867 162.922 8.88667 162.623 8.644C162.334 8.40133 161.942 8.28 161.447 8.28C160.99 8.28 160.626 8.378 160.355 8.574C160.085 8.77 159.949 9.02667 159.949 9.344C159.949 9.596 160.029 9.806 160.187 9.974C160.355 10.1327 160.561 10.2633 160.803 10.366C161.055 10.4593 161.401 10.5667 161.839 10.688C162.39 10.8373 162.838 10.9867 163.183 11.136C163.529 11.276 163.823 11.4907 164.065 11.78C164.317 12.0693 164.448 12.4473 164.457 12.914C164.457 13.334 164.341 13.712 164.107 14.048C163.874 14.384 163.543 14.65 163.113 14.846C162.693 15.0327 162.208 15.126 161.657 15.126ZM168.972 15.126C168.384 15.126 167.856 15.028 167.39 14.832C166.923 14.6267 166.554 14.3467 166.284 13.992C166.013 13.628 165.864 13.2127 165.836 12.746H167.152C167.189 13.1287 167.366 13.4413 167.684 13.684C168.01 13.9267 168.435 14.048 168.958 14.048C169.443 14.048 169.826 13.9407 170.106 13.726C170.386 13.5113 170.526 13.2407 170.526 12.914C170.526 12.578 170.376 12.3307 170.078 12.172C169.779 12.004 169.317 11.8407 168.692 11.682C168.122 11.5327 167.656 11.3833 167.292 11.234C166.937 11.0753 166.629 10.8467 166.368 10.548C166.116 10.24 165.99 9.83867 165.99 9.344C165.99 8.952 166.106 8.59267 166.34 8.266C166.573 7.93933 166.904 7.68267 167.334 7.496C167.763 7.3 168.253 7.202 168.804 7.202C169.653 7.202 170.339 7.41667 170.862 7.846C171.384 8.27533 171.664 8.86333 171.702 9.61H170.428C170.4 9.20867 170.236 8.88667 169.938 8.644C169.648 8.40133 169.256 8.28 168.762 8.28C168.304 8.28 167.94 8.378 167.67 8.574C167.399 8.77 167.264 9.02667 167.264 9.344C167.264 9.596 167.343 9.806 167.502 9.974C167.67 10.1327 167.875 10.2633 168.118 10.366C168.37 10.4593 168.715 10.5667 169.154 10.688C169.704 10.8373 170.152 10.9867 170.498 11.136C170.843 11.276 171.137 11.4907 171.38 11.78C171.632 12.0693 171.762 12.4473 171.772 12.914C171.772 13.334 171.655 13.712 171.422 14.048C171.188 14.384 170.857 14.65 170.428 14.846C170.008 15.0327 169.522 15.126 168.972 15.126Z" fill="#9F9F9F"/>
<line x1="0.0078125" y1="23.5" x2="200.008" y2="23.5" stroke="black"/>
<path d="M215.264 15.098C214.61 15.098 214.022 14.986 213.5 14.762C212.977 14.5287 212.566 14.202 212.268 13.782C211.969 13.362 211.82 12.872 211.82 12.312H213.528C213.565 12.732 213.728 13.0773 214.018 13.348C214.316 13.6187 214.732 13.754 215.264 13.754C215.814 13.754 216.244 13.6233 216.552 13.362C216.86 13.0913 217.014 12.746 217.014 12.326C217.014 11.9993 216.916 11.7333 216.72 11.528C216.533 11.3227 216.295 11.164 216.006 11.052C215.726 10.94 215.334 10.8187 214.83 10.688C214.195 10.52 213.677 10.352 213.276 10.184C212.884 10.0067 212.548 9.736 212.268 9.372C211.988 9.008 211.848 8.52267 211.848 7.916C211.848 7.356 211.988 6.866 212.268 6.446C212.548 6.026 212.94 5.704 213.444 5.48C213.948 5.256 214.531 5.144 215.194 5.144C216.136 5.144 216.906 5.382 217.504 5.858C218.11 6.32467 218.446 6.96867 218.512 7.79H216.748C216.72 7.43533 216.552 7.132 216.244 6.88C215.936 6.628 215.53 6.502 215.026 6.502C214.568 6.502 214.195 6.61867 213.906 6.852C213.616 7.08533 213.472 7.42133 213.472 7.86C213.472 8.15867 213.56 8.406 213.738 8.602C213.924 8.78867 214.158 8.938 214.438 9.05C214.718 9.162 215.1 9.28333 215.586 9.414C216.23 9.59133 216.752 9.76867 217.154 9.946C217.564 10.1233 217.91 10.3987 218.19 10.772C218.479 11.136 218.624 11.626 218.624 12.242C218.624 12.7367 218.488 13.2033 218.218 13.642C217.956 14.0807 217.569 14.4353 217.056 14.706C216.552 14.9673 215.954 15.098 215.264 15.098ZM222.089 5.27V11.472C222.089 12.2093 222.28 12.7647 222.663 13.138C223.055 13.5113 223.596 13.698 224.287 13.698C224.987 13.698 225.528 13.5113 225.911 13.138C226.303 12.7647 226.499 12.2093 226.499 11.472V5.27H228.095V11.444C228.095 12.2373 227.922 12.9093 227.577 13.46C227.232 14.0107 226.77 14.4213 226.191 14.692C225.612 14.9627 224.973 15.098 224.273 15.098C223.573 15.098 222.934 14.9627 222.355 14.692C221.786 14.4213 221.333 14.0107 220.997 13.46C220.661 12.9093 220.493 12.2373 220.493 11.444V5.27H222.089ZM235.381 10.002C235.904 10.0953 236.347 10.3707 236.711 10.828C237.075 11.2853 237.257 11.8033 237.257 12.382C237.257 12.8767 237.126 13.3247 236.865 13.726C236.613 14.118 236.244 14.4307 235.759 14.664C235.274 14.888 234.709 15 234.065 15H230.173V5.27H233.883C234.546 5.27 235.115 5.382 235.591 5.606C236.067 5.83 236.426 6.13333 236.669 6.516C236.912 6.88933 237.033 7.30933 237.033 7.776C237.033 8.336 236.884 8.80267 236.585 9.176C236.286 9.54933 235.885 9.82467 235.381 10.002ZM231.769 9.358H233.743C234.266 9.358 234.672 9.24133 234.961 9.008C235.26 8.76533 235.409 8.42 235.409 7.972C235.409 7.53333 235.26 7.19267 234.961 6.95C234.672 6.698 234.266 6.572 233.743 6.572H231.769V9.358ZM233.925 13.698C234.466 13.698 234.891 13.5673 235.199 13.306C235.507 13.0447 235.661 12.6807 235.661 12.214C235.661 11.738 235.498 11.36 235.171 11.08C234.844 10.8 234.41 10.66 233.869 10.66H231.769V13.698H233.925ZM242.197 15.098C241.544 15.098 240.956 14.986 240.433 14.762C239.911 14.5287 239.5 14.202 239.201 13.782C238.903 13.362 238.753 12.872 238.753 12.312H240.461C240.499 12.732 240.662 13.0773 240.951 13.348C241.25 13.6187 241.665 13.754 242.197 13.754C242.748 13.754 243.177 13.6233 243.485 13.362C243.793 13.0913 243.947 12.746 243.947 12.326C243.947 11.9993 243.849 11.7333 243.653 11.528C243.467 11.3227 243.229 11.164 242.939 11.052C242.659 10.94 242.267 10.8187 241.763 10.688C241.129 10.52 240.611 10.352 240.209 10.184C239.817 10.0067 239.481 9.736 239.201 9.372C238.921 9.008 238.781 8.52267 238.781 7.916C238.781 7.356 238.921 6.866 239.201 6.446C239.481 6.026 239.873 5.704 240.377 5.48C240.881 5.256 241.465 5.144 242.127 5.144C243.07 5.144 243.84 5.382 244.437 5.858C245.044 6.32467 245.38 6.96867 245.445 7.79H243.681C243.653 7.43533 243.485 7.132 243.177 6.88C242.869 6.628 242.463 6.502 241.959 6.502C241.502 6.502 241.129 6.61867 240.839 6.852C240.55 7.08533 240.405 7.42133 240.405 7.86C240.405 8.15867 240.494 8.406 240.671 8.602C240.858 8.78867 241.091 8.938 241.371 9.05C241.651 9.162 242.034 9.28333 242.519 9.414C243.163 9.59133 243.686 9.76867 244.087 9.946C244.498 10.1233 244.843 10.3987 245.123 10.772C245.413 11.136 245.557 11.626 245.557 12.242C245.557 12.7367 245.422 13.2033 245.151 13.642C244.89 14.0807 244.503 14.4353 243.989 14.706C243.485 14.9673 242.888 15.098 242.197 15.098ZM246.909 10.114C246.909 9.162 247.128 8.308 247.567 7.552C248.015 6.796 248.617 6.208 249.373 5.788C250.138 5.35867 250.973 5.144 251.879 5.144C252.915 5.144 253.834 5.40067 254.637 5.914C255.449 6.418 256.037 7.13667 256.401 8.07H254.483C254.231 7.55667 253.881 7.174 253.433 6.922C252.985 6.67 252.467 6.544 251.879 6.544C251.235 6.544 250.661 6.68867 250.157 6.978C249.653 7.26733 249.256 7.68267 248.967 8.224C248.687 8.76533 248.547 9.39533 248.547 10.114C248.547 10.8327 248.687 11.4627 248.967 12.004C249.256 12.5453 249.653 12.9653 250.157 13.264C250.661 13.5533 251.235 13.698 251.879 13.698C252.467 13.698 252.985 13.572 253.433 13.32C253.881 13.068 254.231 12.6853 254.483 12.172H256.401C256.037 13.1053 255.449 13.824 254.637 14.328C253.834 14.832 252.915 15.084 251.879 15.084C250.964 15.084 250.129 14.874 249.373 14.454C248.617 14.0247 248.015 13.432 247.567 12.676C247.128 11.92 246.909 11.066 246.909 10.114ZM263.323 15L261.083 11.108H259.865V15H258.269V5.27H261.629C262.375 5.27 263.005 5.40067 263.519 5.662C264.041 5.92333 264.429 6.27333 264.681 6.712C264.942 7.15067 265.073 7.64067 265.073 8.182C265.073 8.81667 264.886 9.39533 264.513 9.918C264.149 10.4313 263.584 10.7813 262.819 10.968L265.227 15H263.323ZM259.865 9.834H261.629C262.226 9.834 262.674 9.68467 262.973 9.386C263.281 9.08733 263.435 8.686 263.435 8.182C263.435 7.678 263.285 7.286 262.987 7.006C262.688 6.71667 262.235 6.572 261.629 6.572H259.865V9.834ZM268.71 5.27V15H267.114V5.27H268.71ZM276.014 10.002C276.537 10.0953 276.98 10.3707 277.344 10.828C277.708 11.2853 277.89 11.8033 277.89 12.382C277.89 12.8767 277.759 13.3247 277.498 13.726C277.246 14.118 276.877 14.4307 276.392 14.664C275.907 14.888 275.342 15 274.698 15H270.806V5.27H274.516C275.179 5.27 275.748 5.382 276.224 5.606C276.7 5.83 277.059 6.13333 277.302 6.516C277.545 6.88933 277.666 7.30933 277.666 7.776C277.666 8.336 277.517 8.80267 277.218 9.176C276.919 9.54933 276.518 9.82467 276.014 10.002ZM272.402 9.358H274.376C274.899 9.358 275.305 9.24133 275.594 9.008C275.893 8.76533 276.042 8.42 276.042 7.972C276.042 7.53333 275.893 7.19267 275.594 6.95C275.305 6.698 274.899 6.572 274.376 6.572H272.402V9.358ZM274.558 13.698C275.099 13.698 275.524 13.5673 275.832 13.306C276.14 13.0447 276.294 12.6807 276.294 12.214C276.294 11.738 276.131 11.36 275.804 11.08C275.477 10.8 275.043 10.66 274.502 10.66H272.402V13.698H274.558ZM281.22 6.558V9.414H284.58V10.716H281.22V13.698H285V15H279.624V5.256H285V6.558H281.22Z" fill="black"/>
<line x1="211.005" y1="23.5" x2="286.012" y2="23.5" stroke="black"/>
</svg>
